<svg xmlns="http://www.w3.org/2000/svg" width="2000" height="2000" viewBox="0 0 2000 2000">
  <metadata><?xpacket begin="﻿" id="W5M0MpCehiHzreSzNTczkc9d"?>
<x:xmpmeta xmlns:x="adobe:ns:meta/" x:xmptk="Adobe XMP Core 5.6-c140 79.160451, 2017/05/06-01:08:21        ">
   <rdf:RDF xmlns:rdf="http://www.w3.org/1999/02/22-rdf-syntax-ns#">
      <rdf:Description rdf:about=""/>
   </rdf:RDF>
</x:xmpmeta>
                                                                                                    
                                                                                                    
                                                                                                    
                                                                                                    
                                                                                                    
                                                                                                    
                                                                                                    
                                                                                                    
                                                                                                    
                                                                                                    
                                                                                                    
                                                                                                    
                                                                                                    
                                                                                                    
                                                                                                    
                                                                                                    
                                                                                                    
                                                                                                    
                                                                                                    
                                                                                                    
                           
<?xpacket end="w"?></metadata>
<defs>
    <style>
      .cls-1 {
        fill: #b857ff;
        fill-rule: evenodd;
      }
    </style>
  </defs>
  <path id="Shape_1_copy" data-name="Shape 1 copy" class="cls-1" d="M1000,1000L0.035,977.373l1.833-41.985Zm0,0L5.813,890.307,11.3,848.641Zm0,0L19.156,804.075l9.1-41.029Zm0,0L39.964,719.334,52.6,679.254Zm0,0L68.079,636.73,84.162,597.9Zm0,0L103.287,556.89l19.4-37.277Zm0,0L145.319,480.422l22.58-35.444Zm0,0L193.855,407.909l25.583-33.341Zm0,0L248.527,339.9l28.392-30.984Zm0,0L308.918,276.919,339.9,248.527Zm0,0L374.568,219.438l33.341-25.583Zm0,0L444.979,167.9l35.443-22.58Zm0,0L519.613,122.692l37.277-19.4Zm0,0L597.9,84.162,636.73,68.079Zm0,0L679.254,52.6l40.08-12.637Zm0,0L763.046,28.252l41.029-9.1Zm0,0L848.641,11.3l41.666-5.485Zm0,0L935.388,1.868l41.985-1.833Zm0,0L1022.63,0.035l41.98,1.833Zm0,0L1109.69,5.812l41.67,5.485Zm0,0L1195.92,19.156l41.03,9.1Zm0,0L1280.67,39.965,1320.75,52.6Zm0,0L1363.27,68.079l38.83,16.082Zm0,0,443.11-896.713,37.28,19.4Zm0,0,519.58-854.681,35.44,22.58Zm0,0,592.09-806.145,33.34,25.583Zm0,0,660.1-751.473,30.98,28.392Zm0,0,723.08-691.082,28.39,30.984Zm0,0,780.56-625.432,25.58,33.341Zm0,0,832.1-555.022,22.58,35.444Zm0,0,877.31-480.387,19.4,37.277Zm0,0,915.84-402.1,16.08,38.827Zm0,0,947.4-320.746,12.64,40.08Zm0,0,971.75-236.954,9.09,41.029Zm0,0,988.7-151.359,5.49,41.666Zm0,0,998.13-64.612,1.83,41.985Zm0,0,999.96,22.63-1.83,41.98Zm0,0L0.035,1022.63l1.833,41.98Zm0,0L5.813,1109.69l5.485,41.67Zm0,0L19.156,1195.92l9.1,41.03Zm0,0L39.964,1280.67,52.6,1320.75Zm0,0L68.079,1363.27l16.082,38.83Zm0,0L103.287,1443.11l19.4,37.28Zm0,0L145.318,1519.58l22.581,35.44Zm0,0L193.855,1592.09l25.583,33.34Zm0,0L248.527,1660.1l28.392,30.98Zm0,0L308.918,1723.08l30.984,28.39Zm0,0L374.568,1780.56l33.341,25.58Zm0,0L444.979,1832.1l35.443,22.58Zm0,0L519.613,1877.31l37.277,19.4Zm0,0L597.9,1915.84l38.827,16.08Zm0,0L679.254,1947.4l40.08,12.64Zm0,0L763.046,1971.75l41.029,9.09Zm0,0L848.641,1988.7l41.666,5.49Zm0,0-64.612,998.13,41.985,1.83Zm0,0,22.63,999.96,41.98-1.83Zm0,0,109.69,994.19,41.67-5.49Zm0,0,195.92,980.84,41.03-9.09Zm0,0,280.67,960.04,40.08-12.64Zm0,0,363.27,931.92,38.83-16.08Zm0,0,443.11,896.71,37.28-19.4Zm0,0,519.58,854.68,35.44-22.58Zm0,0,592.09,806.14,33.34-25.58Zm0,0,660.1,751.47,30.98-28.39Zm0,0,723.08,691.08,28.39-30.98Zm0,0,780.56,625.43,25.58-33.34Zm0,0,832.1,555.02,22.58-35.44Zm0,0,877.31,480.39,19.4-37.28Zm0,0,915.84,402.1,16.08-38.83Zm0,0,947.4,320.75,12.64-40.08Zm0,0,971.75,236.95,9.09-41.03Zm0,0,988.7,151.36,5.49-41.67Z"/>
</svg>
